<?xml version="1.0" standalone="no"?><svg xmlns:xlink="http://www.w3.org/1999/xlink" xmlns="http://www.w3.org/2000/svg" viewBox="0 0 1000 636.3681419437974" preserveAspectRatio="xMaxYMax slice"><g transform="scale(0.9912276354264756)"><rect x="0" y="0" width="1008.8571428571428" height="733.7142857142857" fill="#101010"/><rect x="275.1428571428571" y="0" width="91.71428571428571" height="91.71428571428571" fill="#101010"/><path d="M 321 45.86 A 45.86 45.86 0 0 1  366.86 91.72 L 321 45.86 A 45.86 45.86 0 0 0 366.86 91.72" fill="#1f1414"/><rect x="642" y="0" width="91.71428571428571" height="91.71428571428571" fill="#101010"/><rect x="825.4285714285713" y="0" width="91.71428571428571" height="91.71428571428571" fill="#101010"/><rect x="917.1428571428571" y="0" width="91.71428571428571" height="91.71428571428571" fill="#101010"/><path d="M 917.14 45.86 A 45.86 45.86 0 0 1  963 91.72 L 917.14 45.86 A 45.86 45.86 0 0 0 963 91.72" fill="#8e3132"/><rect x="91.71428571428571" y="91.71428571428571" width="91.71428571428571" height="91.71428571428571" fill="#101010"/><path d="M 91.71 137.57 A 45.86 45.86 0 0 1  137.57 91.71 L 91.71 137.57 A 45.86 45.86 0 0 0 137.57 91.71" fill="#842e2f"/><rect x="642" y="91.71428571428571" width="91.71428571428571" height="91.71428571428571" fill="#101010"/><path d="M 642 137.57 A 45.86 45.86 0 0 1  687.86 183.43 L 642 137.57 A 45.86 45.86 0 0 0 687.86 183.43" fill="#772b2c"/><rect x="733.7142857142857" y="91.71428571428571" width="91.71428571428571" height="91.71428571428571" fill="#101010"/><path d="M 779.57 137.57 A 45.86 45.86 0 0 1  825.4300000000001 91.71 L 779.57 137.57 A 45.86 45.86 0 0 0 825.4300000000001 91.71" fill="#4f2021"/><path d="M 733.71 137.57 A 45.86 45.86 0 0 1  779.57 183.43 L 733.71 137.57 A 45.86 45.86 0 0 0 779.57 183.43" fill="#101010"/><rect x="825.4285714285713" y="91.71428571428571" width="91.71428571428571" height="91.71428571428571" fill="#101010"/><path d="M 871.29 91.71 A 45.86 45.86 0 0 1  917.15 137.57 L 871.29 91.71 A 45.86 45.86 0 0 0 917.15 137.57" fill="#9d3536"/><path d="M 825.43 183.43 A 45.86 45.86 0 0 1  871.29 137.57 L 825.43 183.43 A 45.86 45.86 0 0 0 871.29 137.57" fill="#602525"/><rect x="91.71428571428571" y="183.42857142857142" width="91.71428571428571" height="91.71428571428571" fill="#101010"/><rect x="458.57142857142856" y="183.42857142857142" width="91.71428571428571" height="91.71428571428571" fill="#101010"/><path d="M 458.57 229.29 A 45.86 45.86 0 0 1  504.43 275.15 L 458.57 229.29 A 45.86 45.86 0 0 0 504.43 275.15" fill="#682727"/><path d="M 504.43 275.15 A 45.86 45.86 0 0 1  550.29 229.29 L 504.43 275.15 A 45.86 45.86 0 0 0 550.29 229.29" fill="#8c3031"/><rect x="550.2857142857142" y="183.42857142857142" width="91.71428571428571" height="91.71428571428571" fill="#101010"/><rect x="642" y="183.42857142857142" width="91.71428571428571" height="91.71428571428571" fill="#101010"/><path d="M 687.86 275.15 A 45.86 45.86 0 0 1  733.72 229.29 L 687.86 275.15 A 45.86 45.86 0 0 0 733.72 229.29" fill="#421d1d"/><rect x="733.7142857142857" y="183.42857142857142" width="91.71428571428571" height="91.71428571428571" fill="#101010"/><rect x="917.1428571428571" y="183.42857142857142" width="91.71428571428571" height="91.71428571428571" fill="#101010"/><path d="M 963 229.29000000000002 A 45.86 45.86 0 0 1  1008.86 183.43 L 963 229.29000000000002 A 45.86 45.86 0 0 0 1008.86 183.43" fill="#1c1313"/><path d="M 963 275.15 A 45.86 45.86 0 0 1  1008.86 229.29 L 963 275.15 A 45.86 45.86 0 0 0 1008.86 229.29" fill="#6c2829"/><rect x="0" y="275.1428571428571" width="91.71428571428571" height="91.71428571428571" fill="#101010"/><path d="M 0 321 A 45.86 45.86 0 0 1  45.86 275.14 L 0 321 A 45.86 45.86 0 0 0 45.86 275.14" fill="#772b2c"/><path d="M 45.86 321 A 45.86 45.86 0 0 1  91.72 366.86 L 45.86 321 A 45.86 45.86 0 0 0 91.72 366.86" fill="#f44b4d"/><rect x="91.71428571428571" y="275.1428571428571" width="91.71428571428571" height="91.71428571428571" fill="#101010"/><path d="M 137.57 321 A 45.86 45.86 0 0 1  183.43 366.86 L 137.57 321 A 45.86 45.86 0 0 0 183.43 366.86" fill="#852e2f"/><rect x="183.42857142857142" y="275.1428571428571" width="91.71428571428571" height="91.71428571428571" fill="#101010"/><path d="M 183.43 275.14 A 45.86 45.86 0 0 1  229.29000000000002 321 L 183.43 275.14 A 45.86 45.86 0 0 0 229.29000000000002 321" fill="#351a1a"/><path d="M 183.43 366.86 A 45.86 45.86 0 0 1  229.29000000000002 321 L 183.43 366.86 A 45.86 45.86 0 0 0 229.29000000000002 321" fill="#b33a3c"/><rect x="458.57142857142856" y="275.1428571428571" width="91.71428571428571" height="91.71428571428571" fill="#101010"/><path d="M 458.57 321 A 45.86 45.86 0 0 1  504.43 366.86 L 458.57 321 A 45.86 45.86 0 0 0 504.43 366.86" fill="#8b3031"/><rect x="642" y="275.1428571428571" width="91.71428571428571" height="91.71428571428571" fill="#101010"/><rect x="825.4285714285713" y="275.1428571428571" width="91.71428571428571" height="91.71428571428571" fill="#101010"/><path d="M 825.43 275.14 A 45.86 45.86 0 0 1  871.29 321 L 825.43 275.14 A 45.86 45.86 0 0 0 871.29 321" fill="#5f2525"/><path d="M 871.29 321 A 45.86 45.86 0 0 1  917.15 366.86 L 871.29 321 A 45.86 45.86 0 0 0 917.15 366.86" fill="#5c2424"/><rect x="0" y="366.85714285714283" width="91.71428571428571" height="91.71428571428571" fill="#101010"/><path d="M 0 366.86 A 45.86 45.86 0 0 1  45.86 412.72 L 0 366.86 A 45.86 45.86 0 0 0 45.86 412.72" fill="#682728"/><path d="M 45.86 458.57 A 45.86 45.86 0 0 1  91.72 412.71 L 45.86 458.57 A 45.86 45.86 0 0 0 91.72 412.71" fill="#151111"/><rect x="91.71428571428571" y="366.85714285714283" width="91.71428571428571" height="91.71428571428571" fill="#101010"/><path d="M 137.57 458.57 A 45.86 45.86 0 0 1  183.43 412.71 L 137.57 458.57 A 45.86 45.86 0 0 0 183.43 412.71" fill="#512121"/><rect x="183.42857142857142" y="366.85714285714283" width="91.71428571428571" height="91.71428571428571" fill="#101010"/><path d="M 183.43 366.86 A 45.86 45.86 0 0 1  229.29000000000002 412.72 L 183.43 366.86 A 45.86 45.86 0 0 0 229.29000000000002 412.72" fill="#983334"/><path d="M 229.29 366.86 A 45.86 45.86 0 0 1  275.15 412.72 L 229.29 366.86 A 45.86 45.86 0 0 0 275.15 412.72" fill="#c73f41"/><path d="M 229.29 412.71 A 45.86 45.86 0 0 1  275.15 458.57 L 229.29 412.71 A 45.86 45.86 0 0 0 275.15 458.57" fill="#211515"/><rect x="275.1428571428571" y="366.85714285714283" width="91.71428571428571" height="91.71428571428571" fill="#101010"/><rect x="366.85714285714283" y="366.85714285714283" width="91.71428571428571" height="91.71428571428571" fill="#101010"/><path d="M 366.86 366.86 A 45.86 45.86 0 0 1  412.72 412.72 L 366.86 366.86 A 45.86 45.86 0 0 0 412.72 412.72" fill="#d04243"/><path d="M 412.71 366.86 A 45.86 45.86 0 0 1  458.57 412.72 L 412.71 366.86 A 45.86 45.86 0 0 0 458.57 412.72" fill="#542222"/><path d="M 412.71 458.57 A 45.86 45.86 0 0 1  458.57 412.71 L 412.71 458.57 A 45.86 45.86 0 0 0 458.57 412.71" fill="#ba3c3d"/><rect x="91.71428571428571" y="458.57142857142856" width="91.71428571428571" height="91.71428571428571" fill="#101010"/><path d="M 91.71 504.43 A 45.86 45.86 0 0 1  137.57 458.57 L 91.71 504.43 A 45.86 45.86 0 0 0 137.57 458.57" fill="#993435"/><rect x="825.4285714285713" y="458.57142857142856" width="91.71428571428571" height="91.71428571428571" fill="#101010"/><path d="M 825.43 504.43 A 45.86 45.86 0 0 1  871.29 458.57 L 825.43 504.43 A 45.86 45.86 0 0 0 871.29 458.57" fill="#e24748"/><path d="M 871.29 504.43 A 45.86 45.86 0 0 1  917.15 458.57 L 871.29 504.43 A 45.86 45.86 0 0 0 917.15 458.57" fill="#ad393a"/><path d="M 871.29 550.29 A 45.86 45.86 0 0 1  917.15 504.43 L 871.29 550.29 A 45.86 45.86 0 0 0 917.15 504.43" fill="#682728"/><rect x="458.57142857142856" y="550.2857142857142" width="91.71428571428571" height="91.71428571428571" fill="#101010"/><path d="M 504.43 642 A 45.86 45.86 0 0 1  550.29 596.14 L 504.43 642 A 45.86 45.86 0 0 0 550.29 596.14" fill="#903132"/><rect x="642" y="550.2857142857142" width="91.71428571428571" height="91.71428571428571" fill="#101010"/><rect x="275.1428571428571" y="642" width="91.71428571428571" height="91.71428571428571" fill="#101010"/><rect x="917.1428571428571" y="642" width="91.71428571428571" height="91.71428571428571" fill="#101010"/><path d="M 917.14 687.86 A 45.86 45.86 0 0 1  963 733.72 L 917.14 687.86 A 45.86 45.86 0 0 0 963 733.72" fill="#381a1b"/><path d="M 963 733.72 A 45.86 45.86 0 0 1  1008.86 687.86 L 963 733.72 A 45.86 45.86 0 0 0 1008.86 687.86" fill="#532122"/></g></svg>