<svg width="95" height="37" viewBox="0 0 95 37" fill="none" xmlns="http://www.w3.org/2000/svg">
    <path d="M8.3869 6.16452C4.06374 9.56816 0.408531 12.519 0.260097 12.7381C-0.0738813 13.2494 -0.0738813 13.6438 0.297205 14.1843C0.686847 14.7832 1.68878 15.1192 2.46806 14.9147C2.87626 14.8124 5.36254 12.9426 10.0197 9.27601C13.8419 6.26677 17.0518 3.79803 17.1631 3.79803C17.2744 3.79803 20.5214 6.29599 24.3807 9.33444C31.6911 15.09 31.8767 15.2068 32.9899 14.8855C33.2683 14.8124 36.6452 12.256 40.5045 9.23218L47.4994 3.72499L54.513 9.23218C58.4279 12.3145 61.7492 14.8124 62.046 14.9001C62.4171 15.0023 62.7511 15.0023 63.1593 14.9001C63.5304 14.8124 66.1094 12.8842 70.6924 9.27601C74.5146 6.26677 77.7245 3.79803 77.8358 3.79803C77.9471 3.79803 81.157 6.26677 84.9792 9.27601C89.6363 12.9426 92.1226 14.8124 92.5308 14.9147C93.3101 15.1192 94.312 14.7832 94.7017 14.1843C95.0728 13.6438 95.0728 13.2494 94.7388 12.7381C94.5903 12.519 90.9351 9.56816 86.612 6.16452L78.7449 -3.50914e-05H77.8358H76.9266L69.7646 5.62402L62.6212 11.2481L55.4778 5.62402L48.3158 -3.50914e-05H47.4994H46.683L39.5211 5.62402L32.3777 11.2481L25.2342 5.62402L18.0723 -3.50914e-05H17.1631H16.2539L8.3869 6.16452Z" fill="#68EDDD"/>
    <path d="M16.5138 21.3422C16.2541 21.4152 12.4875 24.293 8.1087 27.7259C-0.333523 34.3725 -0.333523 34.3725 0.185998 35.3512C0.482868 35.9355 1.13227 36.2277 2.07854 36.2277H2.85782L10.0198 30.6036L17.1632 24.9796L24.3066 30.6036L31.4686 36.2277H32.3778H33.2869L40.3932 30.6475L47.4996 25.0672L54.6059 30.6475L61.7122 36.2277H62.6213H63.5305L70.6925 30.6036L77.8359 24.9796L84.9793 30.6036L92.1413 36.2277H92.9206C93.8668 36.2277 94.5162 35.9355 94.8131 35.3512C95.3326 34.3579 95.3512 34.3725 86.7791 27.6674C81.4911 23.5042 78.5966 21.3276 78.2626 21.2692C77.9843 21.2253 77.539 21.2546 77.2422 21.3276C76.9638 21.4152 73.5684 23.9716 69.7277 26.9955L62.7141 32.5027L55.6264 26.9224C48.149 21.0646 48.0191 20.977 46.8316 21.3276C46.5347 21.4152 43.2321 23.8986 39.28 26.9955L32.285 32.5027L25.2715 26.9955C19.1856 22.2041 17.7013 21.1523 17.1076 21.1961C17.0333 21.1961 16.7736 21.2692 16.5138 21.3422Z" fill="#68EDDD"/>
    </svg>
    