<svg width="113" height="41" viewBox="0 0 113 41" fill="none" xmlns="http://www.w3.org/2000/svg">
    <path d="M111.329 29.1126C112.814 28.3789 113.424 26.5799 112.69 25.0943C111.956 23.6088 110.157 22.9993 108.671 23.733L111.329 29.1126ZM89.0418 36.7741L86.7107 38.6624L88.2202 40.5259L90.3703 39.4639L89.0418 36.7741ZM74.3274 18.6091L76.6585 16.7208L75.148 14.856L72.997 15.9202L74.3274 18.6091ZM53.3692 28.9786L51.0381 30.867L52.5487 32.7318L54.6996 31.6675L53.3692 28.9786ZM38.6546 10.8136L40.9857 8.92528L39.4751 7.06051L37.3242 8.12475L38.6546 10.8136ZM17.6964 21.1832L15.3632 23.069L16.8734 24.9375L19.0268 23.8721L17.6964 21.1832ZM5.3332 1.11421C4.29171 -0.174376 2.4028 -0.374688 1.11421 0.666802C-0.174376 1.70829 -0.374688 3.5972 0.666802 4.88579L5.3332 1.11421ZM0.666802 4.88579L1.8915 6.40105L6.5579 2.62948L5.3332 1.11421L0.666802 4.88579ZM4.3409 9.43158L6.7903 12.4621L11.4567 8.69054L9.0073 5.66001L4.3409 9.43158ZM9.2397 15.4926L11.6891 18.5232L16.3555 14.7516L13.9061 11.7211L9.2397 15.4926ZM14.1385 21.5537L15.3632 23.069L20.0296 19.2974L18.8049 17.7821L14.1385 21.5537ZM19.0268 23.8721L20.7733 23.0079L18.1125 17.6302L16.366 18.4943L19.0268 23.8721ZM24.2663 21.2797L27.7593 19.5514L25.0986 14.1737L21.6055 15.9019L24.2663 21.2797ZM31.2524 17.8232L34.7454 16.0949L32.0846 10.7171L28.5916 12.4454L31.2524 17.8232ZM38.2384 14.3666L39.9849 13.5025L37.3242 8.12475L35.5777 8.98888L38.2384 14.3666ZM36.3234 12.702L37.5497 14.2157L42.2119 10.439L40.9857 8.92528L36.3234 12.702ZM40.0021 17.2432L42.4545 20.2707L47.1168 16.494L44.6644 13.4665L40.0021 17.2432ZM44.907 23.2982L47.3594 26.3257L52.0217 22.549L49.5692 19.5215L44.907 23.2982ZM49.8119 29.3532L51.0381 30.867L55.7004 27.0903L54.4741 25.5765L49.8119 29.3532ZM54.6996 31.6675L56.4461 30.8034L53.7853 25.4256L52.0388 26.2898L54.6996 31.6675ZM59.9392 29.0751L63.4322 27.3469L60.7714 21.9691L57.2784 23.6974L59.9392 29.0751ZM66.9252 25.6186L70.4182 23.8904L67.7575 18.5126L64.2644 20.2409L66.9252 25.6186ZM73.9113 22.1621L75.6578 21.298L72.997 15.9202L71.2505 16.7843L73.9113 22.1621ZM71.9962 20.4974L73.2224 22.0112L77.8847 18.2345L76.6585 16.7208L71.9962 20.4974ZM75.6749 25.0387L78.1273 28.0662L82.7895 24.2895L80.3371 21.262L75.6749 25.0387ZM80.5797 31.0937L83.0321 34.1212L87.6944 30.3445L85.242 27.317L80.5797 31.0937ZM85.4845 37.1487L86.7107 38.6624L91.373 34.8858L90.1468 33.372L85.4845 37.1487ZM90.3703 39.4639L92.1168 38.6013L89.4598 33.2217L87.7133 34.0843L90.3703 39.4639ZM95.6099 36.8761L99.1029 35.1509L96.4459 29.7713L92.9529 31.4965L95.6099 36.8761ZM102.596 33.4257L106.089 31.7005L103.432 26.3208L99.9389 28.0461L102.596 33.4257ZM109.582 29.9752L111.329 29.1126L108.671 23.733L106.925 24.5956L109.582 29.9752Z" fill="#007CFF"/>
    </svg>
    