<svg width="91" height="87" viewBox="0 0 91 87" fill="none" xmlns="http://www.w3.org/2000/svg">
    <path d="M40.0203 0.212693C31.8034 1.32293 24.9472 3.98076 18.4268 8.60673C16.7834 9.76743 16.4477 10.2889 16.7834 11.0627C17.2782 12.2066 18.2147 12.1898 19.8581 10.9954C25.9368 6.58813 33.4114 3.71161 41.0628 2.82006C43.4307 2.55091 48.5552 2.58456 51.1881 2.90417C55.8001 3.47611 60.6949 4.9396 65.0595 7.04231C75.7679 12.2402 83.8433 21.795 86.8473 32.83C87.9606 36.9513 88.0843 37.9102 88.0843 43.024C88.0843 48.1882 87.8899 49.6349 86.6706 53.8572C86.3349 55.0347 86.0522 56.1617 86.0522 56.33C86.0522 56.8514 86.8473 57.4907 87.4658 57.4907C88.367 57.4907 88.7558 56.9355 89.3742 54.7992C90.5758 50.5769 90.9999 47.5322 90.9999 43.0576C90.9999 35.9757 89.5686 30.0376 86.4056 23.9313C84.0554 19.3895 81.2458 15.7223 77.2875 12.072C73.6121 8.6572 70.3253 6.43673 65.8193 4.33402C61.7374 2.41634 57.9913 1.25564 53.2379 0.448197C50.5166 -0.0228108 42.7769 -0.157385 40.0203 0.212693Z" fill="#726FF0"/>
    <path d="M11.8976 13.7879C5.60687 20.096 1.40127 28.7929 0.235011 37.8093C-0.171413 40.9886 -0.030048 47.3136 0.500069 50.1396C1.87837 57.5412 4.95306 64.1353 9.65343 69.8211C11.2791 71.7892 15.8028 75.9778 18.0116 77.5422C24.4967 82.1346 31.777 84.927 39.7464 85.8522C43.3159 86.2559 49.5183 86.1213 52.9994 85.5326C65.4748 83.4299 76.3245 76.6171 83.269 66.4904C85.0184 63.9503 86.3967 61.3597 86.3967 60.6364C86.3967 59.5598 84.8947 58.9206 84.1172 59.6607C83.9405 59.829 83.4104 60.6869 82.951 61.5448C82.4915 62.4195 81.5373 63.9503 80.8482 64.9764C73.9036 75.0358 62.9832 81.5626 50.4371 83.1439C47.9632 83.4467 42.8564 83.4971 40.5416 83.228C30.5931 82.0841 21.5634 77.8282 14.7426 71.0995C8.75223 65.1951 4.93538 58.0627 3.32736 49.7696C2.85026 47.4145 2.67355 41.2409 2.99162 38.6672C4.05186 29.8695 7.65665 22.3501 14.0181 15.6214C15.308 14.2589 15.4494 13.7879 14.8132 13.0141C14.5305 12.6776 14.3008 12.5767 13.7883 12.5767C13.1699 12.5767 12.9932 12.6945 11.8976 13.7879Z" fill="#726FF0"/>
    </svg>
    