<svg width="94" height="53" viewBox="0 0 94 53" fill="none" xmlns="http://www.w3.org/2000/svg">
    <path d="M45.0431 0.793238C42.318 1.71246 40.537 3.44878 34.7006 10.9558C30.924 15.8073 30.5592 15.8073 26.7398 10.9558C21.1608 3.88286 19.8733 2.65722 17.2769 1.84013C13.6506 0.716636 10.4534 2.01887 7.1489 5.97665C5.81852 7.55976 0.926172 15.1434 0.282442 16.6244C-0.211084 17.7734 0.00349227 20.1481 0.66868 21.0162C1.31241 21.8588 2.6857 22.6249 3.56547 22.6504C5.11042 22.6504 5.45374 22.2929 8.92988 17.0074C13.0498 10.7771 13.8222 9.88336 15.0668 9.88336C15.9895 9.88336 16.0324 9.9089 20.0664 14.837C22.3195 17.5946 24.7227 20.3013 25.4308 20.863C28.3062 23.2121 31.675 23.5441 34.6791 21.7567C36.4172 20.7353 37.6403 19.4076 42.9403 12.7432C45.9229 8.98967 46.0731 8.862 46.8885 8.862C48.0901 8.862 48.7768 9.44928 51.0728 12.4623C55.1497 17.8245 57.7461 20.7098 59.2481 21.6035C62.102 23.2632 65.0846 23.2121 68.0887 21.4248C69.3547 20.6843 70.0628 19.9693 72.2944 17.1861C77.6803 10.5217 78.1953 9.93443 79.0321 9.75569C80.1908 9.50035 81.0277 10.1898 82.358 12.5644C85.1905 17.6202 87.701 21.7312 88.1302 22.0631C89.9111 23.4675 92.8079 22.5738 93.6877 20.3779C94.3743 18.6926 94.0739 17.7734 91.3059 12.9219C87.6795 6.56393 86.4135 4.67441 84.9544 3.52538C81.9718 1.15071 78.3455 0.895374 75.2126 2.78489C74.2041 3.39771 73.024 4.67441 69.7624 8.58112C67.4879 11.3388 65.3636 13.7901 65.0417 14.0199C64.398 14.5306 63.2822 14.6072 62.5955 14.1986C61.7372 13.6624 60.6429 12.3857 58.9048 9.9089C56.4372 6.35966 53.2829 2.70829 52.0169 1.91674C49.8497 0.537897 47.1889 0.103818 45.0431 0.793238Z" fill="#FF4D00"/>
    <path d="M45.9229 30.8213C43.6699 31.3064 41.4383 32.8129 39.3998 35.2387C38.6702 36.1068 36.8892 38.3794 35.4087 40.2689C32.1256 44.5331 31.8896 44.7373 30.7952 44.7373C29.6151 44.7373 29.1001 44.2266 25.4952 39.6816C23.8 37.5623 21.9547 35.2897 21.3539 34.6769C19.1652 32.4044 16.1826 31.3064 13.5218 31.8171C10.1744 32.4555 7.51366 35.0855 3.1792 41.9797C1.65571 44.4054 0.325331 46.6779 0.218042 47.0609C-0.146738 48.1334 -0.0394499 50.0229 0.432619 50.9166C1.22655 52.4741 3.78002 53.3168 5.06748 52.4486C5.32497 52.2699 6.29057 50.9932 7.21325 49.5888C11.5048 43.0265 13.0712 40.8562 13.8437 40.4221C15.2813 39.605 15.5817 39.8348 20.3883 45.631C24.4438 50.508 24.9158 51.0187 26.5037 51.9124C28.156 52.8827 28.2632 52.9082 30.5807 52.9082C34.5074 52.9082 35.4087 52.1933 41.803 44.099C45.644 39.2475 46.0517 38.8645 47.1246 39.0688C48.2404 39.2986 48.9914 40.0901 52.4031 44.6352C57.1238 50.9421 59.2696 52.704 62.5526 52.9593C64.4195 53.138 66.1146 52.7295 67.8527 51.7081C68.9899 51.0442 69.9341 50.0484 73.7106 45.4778C78.2597 39.9625 78.3884 39.8348 79.6973 40.0135C80.4483 40.1157 81.0921 40.8051 82.122 42.6691C84.7399 47.4184 87.4221 51.8103 88.0229 52.3209C89.5679 53.6232 92.2072 52.9593 93.3015 50.9932C93.7092 50.2782 93.795 49.8441 93.7307 48.8228C93.6448 47.6993 93.323 46.9843 91.2416 43.1031C87.4221 36.0813 86.0059 34.1918 83.4953 32.7619C82.165 32.0214 81.9289 31.9703 79.59 31.9703C77.1653 31.9703 77.1009 31.9958 75.4058 32.9661C73.8608 33.8854 73.3458 34.396 69.4191 39.1198C67.0587 41.9797 64.8915 44.4565 64.6126 44.6097C63.2822 45.4012 61.8016 44.2522 58.8405 40.0901C56.3728 36.6175 53.8837 33.63 52.5748 32.5831C50.708 31.0766 48.0043 30.3617 45.9229 30.8213Z" fill="#FF4D00"/>
    </svg>
    