<svg width="96" height="86" viewBox="0 0 96 86" fill="none" xmlns="http://www.w3.org/2000/svg">
    <path d="M36.1951 0.295248C35.0634 0.642401 34.1268 1.40614 33.4634 2.46495L32.878 3.40226L32.7805 15.4658C32.6634 28.9006 32.761 28.0848 31.3561 28.8312C30.7512 29.161 30.2829 29.1783 17.7366 29.1783C3.39512 29.1783 3.55122 29.161 1.9122 30.2719C1.4439 30.5843 0.858537 31.2265 0.546341 31.7646L0 32.6846V42.6999C0 52.3855 0.0195122 52.7152 0.409756 53.479C0.897561 54.4337 1.79512 55.3015 2.82927 55.7875C3.60976 56.1694 3.72683 56.1694 17.1707 56.2562C30.2829 56.343 30.7512 56.3603 31.3756 56.6901C31.7463 56.8811 32.1951 57.3324 32.4098 57.6795C32.761 58.287 32.7805 58.8598 32.7805 69.8472C32.7805 82.7613 32.761 82.5009 34.1463 83.8895C34.5756 84.3235 35.3366 84.8616 35.8439 85.0872L36.7805 85.5038H48H59.2195L60.1561 85.0872C60.6634 84.8616 61.4244 84.3235 61.8537 83.8895C63.239 82.5009 63.2195 82.7613 63.2195 69.8299C63.2195 56.9852 63.161 57.5059 64.5659 56.7422L65.2683 56.343L78.8293 56.2562C92.2732 56.1694 92.3902 56.1694 93.1707 55.7875C94.2049 55.3015 95.1024 54.4337 95.5902 53.479C95.9805 52.7152 96 52.3855 96 42.6999V32.6846L95.4537 31.7646C95.1415 31.2265 94.5561 30.5843 94.0878 30.2719C92.4488 29.161 92.6049 29.1783 78.2634 29.1783C65.7171 29.1783 65.2488 29.161 64.6439 28.8312C63.239 28.0848 63.3366 28.9006 63.2195 15.4658L63.122 3.40226L62.5366 2.46495C61.8537 1.37142 60.9366 0.642401 59.7268 0.277891C58.478 -0.103977 37.4049 -0.0866191 36.1951 0.295248ZM59.3366 2.67324C60.7415 3.50641 60.6829 2.93361 60.6829 15.9171C60.6829 28.8138 60.6439 28.4667 61.9707 29.8379C62.3415 30.2198 63.0439 30.7231 63.5707 30.9488L64.4878 31.348L78.0488 31.4348L91.6098 31.5216L92.2537 31.9208C93.6 32.7887 93.561 32.4763 93.6195 42.1792C93.6585 47.9766 93.6 51.2225 93.4634 51.83C93.2488 52.7326 92.7024 53.3748 91.7659 53.8088C91.4732 53.9476 87.5902 53.9997 78.3805 53.9997C63.7659 53.9997 64.078 53.9824 62.4976 55.2668C62.0293 55.6487 61.4439 56.2909 61.2098 56.6901C60.7805 57.3844 60.7805 57.4886 60.6829 69.4827C60.5854 81.3553 60.5854 81.581 60.1756 82.0496C59.961 82.31 59.5317 82.6919 59.239 82.8828C58.7122 83.2473 58.4976 83.2473 48 83.2473C37.5024 83.2473 37.2878 83.2473 36.761 82.8828C36.4683 82.6919 36.039 82.31 35.8244 82.0496C35.4146 81.581 35.4146 81.3553 35.3171 69.4827C35.2195 57.4886 35.2195 57.3844 34.7902 56.6901C34.5561 56.2909 33.9707 55.6487 33.5024 55.2668C31.922 53.9824 32.2341 53.9997 17.6195 53.9997C8.40976 53.9997 4.52683 53.9476 4.23415 53.8088C3.29756 53.3748 2.75122 52.7326 2.53659 51.83C2.4 51.2225 2.34146 47.9766 2.38049 42.1792C2.43902 32.4763 2.4 32.7887 3.74634 31.9208L4.39024 31.5216L17.9512 31.4348L31.5122 31.348L32.4293 30.9488C32.9561 30.7231 33.6585 30.2198 34.0293 29.8379C35.3561 28.4667 35.3171 28.8138 35.3171 15.9171C35.3171 2.93361 35.2585 3.50641 36.6634 2.67324L37.3268 2.27402H48H58.6732L59.3366 2.67324Z" fill="#379F7A"/>
    <path d="M5.38541 35.2883C5.2098 35.4966 5.07321 35.7917 5.07321 35.9479C5.07321 36.1041 5.2098 36.3992 5.38541 36.6075C5.67809 36.972 5.79516 36.9893 8.78053 36.9893C12.1952 36.9893 12.4878 36.9025 12.4878 35.9479C12.4878 34.9932 12.1952 34.9064 8.78053 34.9064C5.79516 34.9064 5.67809 34.9238 5.38541 35.2883Z" fill="#379F7A"/>
    <path d="M14.244 35.2362C13.9708 35.6875 13.9903 36.3297 14.3025 36.6942C14.5171 36.9719 15.2586 36.9893 23.8049 36.9546L33.0732 36.9025L33.2488 36.4165C33.3659 36.1214 33.3659 35.7743 33.2488 35.4618L33.0732 34.9932L23.7659 34.9411C14.7122 34.9064 14.4586 34.9064 14.244 35.2362Z" fill="#379F7A"/>
    </svg>
    