<svg width="109" height="74" viewBox="0 0 109 74" fill="none" xmlns="http://www.w3.org/2000/svg">
    <path d="M21.8 0.119049C21.5658 0.157628 20.8846 0.639867 20.2885 1.19926C18.2873 3.07035 0.787695 20.9132 0.404492 21.4919C0.170312 21.8005 0 22.2827 0 22.5528C0 22.8229 2.40566 27.4523 5.34355 32.8727C11.0277 43.3084 11.4535 43.9642 12.7947 43.9642C13.1992 43.9642 14.2637 43.5591 15.6049 42.8647C21.7787 39.7398 28.5061 37.3479 35.5953 35.7661C37.2559 35.3996 38.7035 35.091 38.81 35.091C38.9164 35.091 37.7242 35.689 36.1488 36.4027C31.3588 38.621 28.0164 40.6657 24.1418 43.7906C20.3311 46.8384 16.3926 51.2942 16.3926 52.5673C16.3926 52.9917 17.5848 55.345 20.033 59.8202C22.0342 63.4659 23.8225 66.5909 23.9928 66.7838C24.1844 66.9574 24.6953 67.2081 25.1211 67.3239C25.8662 67.536 26.0791 67.4782 28.6551 66.3787C35.2973 63.5817 41.1092 62.135 48.5603 61.402C52.7543 60.9969 59.0346 61.1319 63.335 61.7106C64.9742 61.9421 66.3367 62.135 66.358 62.1735C66.4006 62.1928 65.698 64.2568 64.8252 66.7452C63.9523 69.2335 63.2285 71.4132 63.2285 71.6061C63.2285 72.1462 63.8672 73.0336 64.442 73.3036C64.7187 73.4386 65.251 73.5351 65.6342 73.5351C66.5496 73.4965 83.8576 67.1888 84.4963 66.668C84.773 66.4365 86.6678 63.2152 88.7115 59.4923C92.6287 52.3937 92.6713 52.278 91.8836 51.2171C91.4791 50.6384 87.7322 48.5744 84.0066 46.8384C82.2822 46.0282 80.941 45.3145 81.0262 45.2759C81.3455 45.1023 84.0705 44.5622 86.2207 44.2343C87.5193 44.0221 89.7973 43.887 92.5861 43.8678L96.9291 43.8099L97.5039 43.2505C98.249 42.5754 109 23.1701 109 22.5335C109 22.2827 108.808 21.7812 108.574 21.4533C108.234 20.9325 107.318 20.4502 103.316 18.637C91.3727 13.2938 79.7275 10.1882 66.209 8.74148C61.6531 8.25924 50.2422 8.16279 45.3457 8.56787C40.7898 8.93438 34.7225 9.78312 30.8053 10.574L28.059 11.1141L27.8887 10.6897C27.7822 10.4583 27.0158 8.31711 26.1855 5.94449C25.334 3.57188 24.525 1.39216 24.3547 1.12211C24.0992 0.659156 22.8645 -0.0545572 22.4174 0.00331145C22.3322 0.022601 22.0555 0.0804697 21.8 0.119049ZM22.46 9.08869C22.9922 10.5933 23.418 11.9243 23.418 12.04C23.418 12.1557 21.7574 12.7344 19.7562 13.3517C17.7338 13.9689 15.1365 14.8177 13.9869 15.2228L11.9006 15.9751L12.5818 15.2613C14.6469 13.1009 21.3529 6.34958 21.4168 6.34958C21.4594 6.34958 21.9277 7.58411 22.46 9.08869ZM64.1865 12.8309C74.7246 13.7182 85.3478 16.0908 94.8428 19.7172C99.058 21.3376 103.465 23.2858 103.465 23.5366C103.465 23.7488 95.2686 38.5053 95.0344 38.7367C94.9918 38.7753 93.3525 38.1195 91.3727 37.2514C82.2184 33.2392 74.0434 31.0788 63.6543 29.9407C59.8648 29.5163 49.9441 29.4778 46.1973 29.8635C35.2121 30.9823 26.0578 33.3935 16.648 37.6758L13.8166 38.9682L9.60137 31.1945L5.38613 23.4208L7.85566 22.2827C20.3098 16.5537 35.8721 12.9852 50.7744 12.4451C53.7549 12.3486 60.6525 12.5415 64.1865 12.8309ZM68.4443 34.8017C71.9145 35.3804 75.64 36.2098 78.5353 37.0585C81.0687 37.7723 86.6891 39.7591 86.5613 39.8748C86.4975 39.9134 85.6672 40.0677 84.6879 40.222C82.0268 40.6464 79.5998 41.2058 76.5129 42.151L73.7027 43.019L71.4035 42.4403C68.5295 41.7459 65.2297 41.1672 61.6531 40.7814C58.4385 40.4342 51.4344 40.3764 48.1133 40.685C43.0891 41.1479 37.3197 42.286 33.1258 43.6556C31.9549 44.0414 30.9756 44.3114 30.933 44.2728C30.8053 44.1764 35.276 41.5916 37.2559 40.6271C42.2588 38.1966 48.4539 36.2291 54.8193 35.0717C60.7377 34.0108 63.4201 33.9529 68.4443 34.8017ZM61.9512 45.0251C70.2752 45.9703 77.918 48.3044 84.9434 52.0272C86.0504 52.6252 86.9871 53.1267 87.0297 53.146C87.1574 53.2232 81.9416 62.2893 81.7713 62.2893C81.6861 62.2893 80.7494 61.9614 79.7062 61.537C74.3627 59.4344 68.0186 57.9684 61.3125 57.2547C58.4172 56.9654 51.0299 56.9461 47.943 57.2547C41.5137 57.872 34.6586 59.4537 29.017 61.6334C27.8035 62.0964 26.7816 62.4822 26.6965 62.4822C26.6113 62.4822 21.7148 53.5125 21.7148 53.3196C21.7148 53.2039 25.7385 51.1013 27.3564 50.3683C34.6799 47.0698 42.1736 45.2759 51.4131 44.6586C53.3078 44.5236 59.4178 44.7551 61.9512 45.0251ZM73.9582 64.0446C75.3846 64.469 76.6193 64.8934 76.7045 64.9898C76.8109 65.067 75.193 65.7421 73.1492 66.4944C71.0203 67.266 69.4023 67.7482 69.4023 67.6325C69.4023 67.0924 70.9564 63.2538 71.1693 63.2538C71.2971 63.2538 72.5531 63.601 73.9582 64.0446Z" fill="#00FF66"/>
    </svg>
    