<svg width="94" height="100" viewBox="0 0 94 100" fill="none" xmlns="http://www.w3.org/2000/svg">
    <path d="M11.2905 0.302953C8.35139 0.986639 6.31237 2.17821 4.10802 4.56134C1.55465 7.29608 0.268786 10.3043 0.0299817 14.0548C-0.410888 21.1456 4.05291 27.709 10.6108 29.5061C12.558 30.0531 15.5339 30.0531 17.5178 29.5061C23.8553 27.7676 28.117 21.9074 28.0987 14.9338C28.0987 11.5349 27.3271 8.99553 25.3983 6.12405C22.3306 1.51405 16.5258 -0.888614 11.2905 0.302953ZM17.6096 3.97532C21.0448 5.22549 23.7818 8.35091 24.6819 12.0819C25.0309 13.5274 25.0677 16.3207 24.7554 17.6881C24.0206 20.9893 21.7061 23.9976 18.8037 25.4626C17.1137 26.3221 16.0666 26.576 14.1194 26.576C5.90824 26.5956 0.691286 17.6295 4.31009 9.75735C5.66943 6.80774 8.6453 4.34647 11.7314 3.60418C13.4398 3.19397 15.8645 3.35024 17.6096 3.97532Z" fill="#D18F42"/>
    <path d="M45.0721 0.107497C39.8001 1.02559 35.4648 4.77609 33.7565 9.95256C30.2846 20.3641 38.2203 31.0491 48.5072 29.8576C57.5818 28.8027 63.2947 19.0944 60.2454 9.95256C58.7207 5.38164 55.0468 1.76787 50.583 0.498174C49.4624 0.166098 46.0824 -0.0487743 45.0721 0.107497ZM49.2787 3.60406C53.0261 4.44401 56.2041 7.51083 57.3981 11.4176C58.0043 13.4101 58.0961 16.262 57.5818 18.0591C56.6633 21.3017 54.6243 23.9388 51.9423 25.3257C50.0135 26.3219 48.9848 26.5759 47.0009 26.5759C45.017 26.5759 43.9883 26.3219 42.0595 25.3257C39.3776 23.9388 37.3385 21.3017 36.4201 18.0591C35.9057 16.2425 35.9792 13.4101 36.5854 11.4176C38.3305 5.73325 43.8046 2.37342 49.2787 3.60406Z" fill="#D18F42"/>
    <path d="M77.5127 0.205318C72.1304 1.22108 67.6483 5.63573 66.2706 11.3006C65.7562 13.3711 65.7562 16.5356 66.2706 18.6453C67.9054 25.3454 73.3979 29.8968 79.8824 29.9163C82.1786 29.9163 83.7767 29.5647 85.7055 28.6076C93.2003 24.9157 96.1578 15.7152 92.3186 7.90166C91.7307 6.71009 91.1245 5.88967 89.8019 4.48323C87.8364 2.39311 86.1464 1.29921 83.74 0.576461C82.1602 0.0881144 79.0558 -0.0876904 77.5127 0.205318ZM82.1786 3.60421C86.3485 4.54183 89.7468 8.19467 90.6469 12.6875C91.8226 18.6257 88.2405 24.7203 82.6562 26.2635C81.2968 26.6346 78.67 26.6737 77.3841 26.3416C74.2797 25.5603 71.4508 23.099 70.0731 20.0127C69.2648 18.2155 69.026 17.1021 69.026 15.0315C69.0076 7.55005 75.3084 2.08057 82.1786 3.60421Z" fill="#D18F42"/>
    <path d="M12.007 35.1511C6.441 36.0887 1.94045 40.4253 0.415779 46.305C-0.0434597 48.0435 -0.0434597 51.9503 0.415779 53.6888C1.68328 58.5722 5.00817 62.4595 9.34339 64.0808C17.9403 67.3234 27.07 61.2484 28.062 51.5986C28.9437 43.0623 22.8634 35.4832 14.7624 35.073C13.8623 35.0144 12.6132 35.0534 12.007 35.1511ZM17.1137 38.8039C20.1814 39.7611 22.7348 42.1247 24.039 45.2111C24.7371 46.8714 24.9759 48.0825 24.9759 49.9969C24.9759 52.1065 24.7371 53.2004 23.8002 55.2515C22.496 58.1034 20.0161 60.2717 16.9668 61.2484C15.2584 61.7953 12.5948 61.7172 10.7211 61.0726C5.37556 59.1973 2.216 53.4153 3.37328 47.5551C4.27339 42.9842 7.89219 39.3118 12.356 38.4719C13.55 38.257 15.883 38.4133 17.1137 38.8039Z" fill="#D18F42"/>
    <path d="M44.9436 35.1706C42.0412 35.6199 39.2123 37.1435 37.063 39.429C33.2238 43.5116 31.9563 49.2936 33.683 54.8217C34.3627 56.99 35.4649 58.8652 37.063 60.5647C42.9964 66.8741 52.6588 66.3272 57.9676 59.3731C60.3005 56.3063 61.4762 51.9698 60.9802 48.1802C60.521 44.7227 59.1983 41.8317 56.9389 39.429C53.7426 36.0496 49.3523 34.4869 44.9436 35.1706ZM49.9952 38.8039C53.614 39.9369 56.498 43.0232 57.5818 46.9691C58.0227 48.5513 58.0227 51.4619 57.5818 53.0246C56.4613 57.0486 53.6324 60.0568 49.8482 61.2484C48.3603 61.7172 45.6416 61.7172 44.1537 61.2484C40.3696 60.0568 37.5406 57.0486 36.4201 53.0246C35.9792 51.4423 35.9792 48.5513 36.4201 46.9691C37.6876 42.4177 41.2513 39.0969 45.6232 38.3937C46.5234 38.257 48.9849 38.4718 49.9952 38.8039Z" fill="#D18F42"/>
    <path d="M77.9536 35.1512C70.4404 36.3232 65.1132 43.6289 65.9399 51.5987C66.5828 57.7909 70.5874 62.7525 76.337 64.491C78.4679 65.1356 81.5907 65.077 83.8318 64.3738C88.6079 62.8502 92.2451 58.8848 93.586 53.6888C94.0453 51.9503 94.0453 48.0435 93.586 46.305C92.3185 41.4215 88.9937 37.5343 84.6584 35.913C82.4357 35.073 80.1212 34.7995 77.9536 35.1512ZM83.3726 38.9798C86.9363 40.1714 89.8387 43.6093 90.6285 47.5747C91.7858 53.3958 88.6263 59.2169 83.2807 61.0726C81.407 61.7172 78.7434 61.7953 77.0351 61.2484C73.9857 60.2717 71.5058 58.1034 70.2016 55.2515C69.2648 53.2004 69.026 52.1065 69.026 49.9969C69.026 47.8872 69.2648 46.7933 70.2016 44.7423C71.7079 41.4215 74.9042 38.9798 78.5046 38.3938C79.5884 38.2375 82.0132 38.511 83.3726 38.9798Z" fill="#D18F42"/>
    <path d="M12.5409 70.1158C8.24242 70.5846 4.21949 73.3584 1.9784 77.3433C-0.538225 81.8556 -0.648442 87.3447 1.68449 92.0914C2.7683 94.2792 5.3584 97.0335 7.41579 98.186C14.7636 102.269 23.4157 99.1236 26.8875 91.1538C27.7876 89.1027 28.1183 87.4033 28.1183 84.9615C28.0815 76.0541 20.9174 69.2172 12.5409 70.1158ZM17.6476 74.003C23.9117 76.2299 26.8508 84.1411 23.7463 90.431C20.9909 96.0372 14.5799 98.2055 9.1609 95.3926C7.26884 94.3964 5.24819 92.2477 4.31134 90.2357C0.931339 82.8519 5.32166 74.2765 12.9267 73.4561C14.4697 73.2998 16.1964 73.4951 17.6476 74.003Z" fill="#D18F42"/>
    <path d="M45.3476 70.1361C36.3833 71.269 30.7255 80.9579 33.7565 90.0411C35.2811 94.6511 38.9367 98.1868 43.5291 99.5346C44.3557 99.7885 45.366 99.8862 47.0009 99.8862C48.6358 99.8862 49.6461 99.7885 50.4728 99.5346C55.3591 98.1086 59.0881 94.2409 60.5209 89.1621C61.1822 86.779 61.2373 83.4582 60.6311 81.1923C59.5473 77.1097 56.9756 73.6717 53.6323 71.816C51.5933 70.6635 50.4544 70.3509 47.3683 70.0384C47.0193 69.9993 46.1008 70.0384 45.3476 70.1361ZM49.4808 73.6717C52.475 74.3554 55.3774 76.7971 56.7919 79.7858C58.041 82.462 58.2798 85.7437 57.4164 88.5761C56.498 91.5257 54.4957 94.0065 51.9056 95.3934C45.9355 98.597 38.6795 95.3739 36.5854 88.5761C35.3362 84.4935 36.3649 79.9226 39.1938 76.8557C41.8942 73.9452 45.6416 72.7927 49.4808 73.6717Z" fill="#D18F42"/>
    <path d="M78.3577 70.1364C73.6184 70.7029 69.3934 73.8674 67.2992 78.3797C65.4255 82.4428 65.3888 87.5802 67.2074 91.4283C70.8997 99.2614 79.3497 102.211 86.5873 98.1871C88.6447 97.0346 91.2348 94.2803 92.3186 92.0925C94.6515 87.3458 94.5413 81.8567 92.0247 77.3444C89.2325 72.3437 83.7951 69.4723 78.3577 70.1364ZM83.0052 73.8283C85.2463 74.4729 87.5425 76.27 88.9569 78.4578C91.9512 83.1264 91.4001 89.1624 87.616 93.1864C83.8318 97.2104 78.1556 97.7964 73.7653 94.6124C70.716 92.3855 69.026 88.9475 69.026 84.9626C69.026 82.892 69.2648 81.7786 70.073 79.9815C72.3509 74.8636 77.7331 72.3047 83.0052 73.8283Z" fill="#D18F42"/>
    </svg>
    