<svg width="53" height="93" viewBox="0 0 53 93" fill="none" xmlns="http://www.w3.org/2000/svg">
    <path d="M5.88672 0.153047C4.67417 0.434546 2.89446 1.42917 2.03395 2.32997C1.60369 2.78037 0.958303 3.71869 0.62583 4.41306L0 5.67042V46.5065V87.3237L0.723616 88.75C1.60369 90.4578 2.73801 91.5087 4.55683 92.3344L5.86716 92.9349H26.5H47.1328L48.4432 92.3344C50.262 91.5087 51.3963 90.4578 52.2764 88.75L53 87.3237V46.4877V5.65165L52.2764 4.22539C51.3963 2.51763 50.262 1.46671 48.4432 0.640978L47.1328 0.0404478L26.8911 0.00291464C15.0786 -0.0158519 6.33653 0.0592143 5.88672 0.153047ZM13.3967 6.27095C13.9443 8.91703 14.1594 9.70523 14.5114 10.0243L14.9417 10.4559H26.5H38.0583L38.4886 10.0243C38.8406 9.70523 39.0557 8.91703 39.6033 6.27095L40.2683 2.94927H43.0845C44.7273 2.94927 46.2528 3.0431 46.7221 3.17446C47.7978 3.47473 49.421 5.03235 49.7339 6.06451C50.086 7.19051 50.086 85.7849 49.7339 86.9109C49.421 87.943 47.7978 89.5007 46.7221 89.8009C45.5487 90.12 7.45129 90.12 6.27786 89.8009C5.20221 89.5007 3.57897 87.943 3.26605 86.9109C2.91402 85.7849 2.91402 7.19051 3.26605 6.06451C3.55941 5.10742 5.20221 3.4935 6.16052 3.19323C6.5321 3.08063 8.17491 2.9868 9.7786 2.96803L12.7317 2.94927L13.3967 6.27095ZM37.0022 3.45596C36.9435 3.75623 36.748 4.76962 36.5524 5.70795L36.2004 7.45324H26.5H16.7996L16.4476 5.70795C16.252 4.76962 16.0565 3.75623 15.9978 3.45596L15.9 2.94927H26.5H37.1196L37.0022 3.45596Z" fill="#860DFF"/>
    <path d="M6.64939 84.49C6.33648 84.7715 6.16046 85.1656 6.16046 85.5222C6.16046 85.8788 6.33648 86.2729 6.64939 86.5544L7.11876 87.0235H12.4188H17.7188L18.1881 86.5544C18.5011 86.2729 18.6771 85.8788 18.6771 85.5222C18.6771 85.1656 18.5011 84.7715 18.1881 84.49L17.7188 84.0209H12.4188H7.11876L6.64939 84.49Z" fill="#860DFF"/>
    <path d="M20.7305 84.49C20.4176 84.7715 20.2416 85.1656 20.2416 85.5222C20.2416 85.8788 20.4176 86.2729 20.7305 86.5544C21.1412 86.9672 21.3759 87.0235 22.5884 87.0235C23.801 87.0235 24.0357 86.9672 24.4464 86.5544C24.7593 86.2729 24.9353 85.8788 24.9353 85.5222C24.9353 85.1656 24.7593 84.7715 24.4464 84.49C24.0357 84.0772 23.801 84.0209 22.5884 84.0209C21.3759 84.0209 21.1412 84.0772 20.7305 84.49Z" fill="#860DFF"/>
    </svg>
    