<svg width="96" height="96" viewBox="0 0 96 96" fill="none" xmlns="http://www.w3.org/2000/svg">
    <path d="M42.8069 0.19115C32.481 1.3684 23.0375 5.61023 15.6779 12.356C7.0605 20.2791 1.87878 30.1269 0.245405 41.7686C-0.148856 44.6837 -0.0549846 51.579 0.433149 54.7557C2.08529 65.3322 6.66624 74.3017 14.1948 81.7016C18.1749 85.6071 21.7796 88.1671 26.8487 90.6524C36.0669 95.1745 46.0924 96.5947 56.3057 94.8382C65.2423 93.2872 74.1789 88.8585 80.5622 82.8415L81.9703 81.5147L81.0691 80.5991C80.581 80.1132 80.1116 79.7021 80.0177 79.7021C79.9239 79.7021 79.1541 80.3562 78.2717 81.141C77.4081 81.9258 76.582 82.6359 76.4506 82.7106C76.3192 82.7854 75.7747 82.5425 75.1364 82.1314C73.6532 81.1223 72.4517 80.7299 68.265 79.7769C60.605 78.0577 59.4222 76.8057 57.4509 68.3968C56.2681 63.4075 54.6911 61.0717 51.4807 59.5207C49.791 58.7172 49.0025 58.493 44.966 57.6708C39.0145 56.4375 36.9118 54.4567 35.56 48.7947C34.4711 44.2726 34.2458 43.5251 33.5699 42.1423C33.1006 41.1706 32.4998 40.3671 31.6549 39.5075C29.7587 37.6202 28.1254 36.9101 23.5632 35.9758C18.9822 35.0227 17.4803 34.3687 15.7718 32.5935C14.3825 31.136 13.7442 29.6971 12.8618 25.9411C12.4487 24.2407 11.9982 22.4467 11.8292 21.9422L11.51 21.0079L12.5989 19.6625C13.1997 18.915 14.589 17.4014 15.6967 16.2802L17.6868 14.2434L18.1749 15.0656C18.4378 15.5141 19.1324 17.009 19.6957 18.3918C21.0662 21.6619 22.0237 23.269 23.5444 24.7639C24.99 26.184 26.8675 27.1931 29.0077 27.6603C29.815 27.8285 31.9741 28.034 34.0768 28.1274C37.9631 28.3143 39.1835 28.5385 40.5164 29.3234C42.2061 30.2951 43.1449 31.6779 44.797 35.6207C46.0737 38.6853 46.9373 40.1802 48.2515 41.563C50.786 44.2726 54.0903 45.3003 60.2671 45.319C62.2008 45.319 64.1158 45.674 65.2047 46.2346C67.0446 47.169 68.0397 48.5331 69.6355 52.2891C71.5317 56.7178 72.6394 58.4182 74.5168 59.8197C76.9575 61.651 78.4782 62.0808 83.3596 62.3237C87.0581 62.5106 88.7478 62.7348 89.7804 63.1646L90.4 63.4262L89.5551 65.4443C88.6352 67.5933 87.6964 69.3872 86.232 71.723C85.7439 72.5265 85.3309 73.2553 85.3309 73.3114C85.3309 73.3861 85.6125 73.6103 85.9504 73.8346C86.2696 74.0401 86.7765 74.3765 87.0581 74.5447L87.565 74.881L88.5225 73.4048C89.7429 71.5548 92.2398 66.5282 93.1222 64.1176C95.6192 57.3718 96.5767 48.9629 95.6568 41.7686C94.305 31.2294 89.5363 21.5311 82.0266 14.0378C74.4793 6.52587 65.2611 1.92899 54.6348 0.359328C51.9313 -0.0330882 45.5667 -0.126521 42.8069 0.19115ZM54.5409 3.18099C70.3677 5.5168 83.9979 16.1868 89.9306 30.9117C90.8505 33.2102 91.808 36.3121 91.6391 36.4803C91.6015 36.5364 90.813 36.6672 89.893 36.7606C85.8753 37.2091 83.4534 35.9944 81.2756 32.4627C78.4407 27.8845 77.4456 26.7073 75.587 25.7356C73.8785 24.8386 72.8647 24.6891 69.8608 24.876C68.3964 24.9507 66.1622 25.0255 64.8668 25.0442C62.6327 25.0442 62.4637 25.0068 61.4311 24.5023C59.9479 23.7548 58.5962 22.2599 57.0942 19.7185C54.3344 15.0656 52.7198 13.7388 49.1527 13.1783C48.1388 13.0101 47.2564 13.0288 44.8909 13.2904C38.3386 13.9818 36.6301 13.1783 33.5136 7.92735C32.4622 6.17082 32.2182 5.62892 32.4059 5.49811C33.4948 4.84408 39.221 3.46128 42.3376 3.10624C43.3138 2.99412 44.4215 2.86332 44.7782 2.82594C46.2614 2.65777 52.5133 2.882 54.5409 3.18099ZM31.2607 9.64651C33.9454 14.15 36.4987 16.0186 40.385 16.2989C41.2862 16.355 43.0698 16.2802 44.9096 16.0933C50.4669 15.4954 51.6872 16.1494 54.8225 21.3816C56.6436 24.4088 58.0705 25.9411 59.9855 26.8754C62.2947 28.034 62.4825 28.0527 70.3301 27.6416C72.1513 27.5482 72.6957 27.5855 73.5218 27.8471C74.9674 28.333 76.4506 29.9027 78.1027 32.6869C78.8349 33.9016 79.8488 35.4152 80.3744 36.0505C82.7025 38.8722 85.9504 39.9934 90.3249 39.5262C91.4138 39.4141 92.3525 39.358 92.39 39.3954C92.4276 39.4328 92.5966 40.3858 92.7843 41.507C93.2349 44.4968 93.2349 51.0371 92.7655 54.0082C92.4276 56.1945 91.4889 60.3616 91.2824 60.5672C91.226 60.6232 90.6065 60.4924 89.893 60.2682C88.9168 59.9505 87.7903 59.8197 85.1431 59.6889C79.1917 59.3712 77.3142 58.8293 75.418 56.8299C74.2164 55.5779 73.6908 54.6436 72.2827 51.28C70.9122 48.0472 69.9171 46.4215 68.5466 45.1695C66.4439 43.2822 64.6603 42.7403 59.5161 42.4973C55.4608 42.2918 53.9401 42.0489 52.4757 41.3014C50.2979 40.1989 49.1902 38.7227 47.3128 34.35C45.792 30.7996 44.9284 29.4168 43.464 28.0714C41.3237 26.0906 39.5026 25.5487 34.1895 25.3245C31.9553 25.2123 29.9652 25.0255 29.3269 24.8573C26.0038 23.979 24.3329 22.2038 22.3428 17.3827C21.9674 16.4484 21.2539 14.9535 20.7846 14.0378L19.9397 12.3934L20.3903 12.0197C21.667 11.0293 25.2153 8.76824 27.1303 7.77786C29.6836 6.43243 29.233 6.24557 31.2607 9.64651ZM9.95176 25.829C10.9656 30.9117 12.43 33.7894 15.0021 35.7328C17.0109 37.2464 18.4565 37.751 24.4268 39.0403C29.3457 40.1055 30.9603 41.7686 32.1994 47.0008C33.5887 52.887 34.3397 54.5875 36.4987 56.7364C37.5689 57.8016 38.2823 58.3248 39.39 58.848C40.7417 59.502 41.6992 59.7637 47.2752 61.0717C49.7347 61.651 50.786 62.1368 51.9876 63.2393C53.4708 64.6408 54.0152 65.9489 55.198 70.9755C56.9065 78.3006 59.6663 80.8607 67.5515 82.4864C70.6118 83.1218 72.1888 83.6076 73.2214 84.2243C74.0662 84.7101 74.1977 84.5793 71.006 86.4666C64.4913 90.316 57.3195 92.4089 49.4718 92.7266C46.4867 92.8387 41.6992 92.5397 41.2862 92.2034C41.136 92.0913 41.0421 90.7272 40.967 88.2418C40.8732 84.1869 40.7042 83.1591 39.7467 81.2344C39.1084 79.9077 37.5689 78.2446 36.0857 77.2916C35.4661 76.8805 33.6826 75.9835 32.1243 75.2921C27.7686 73.3674 26.2291 72.2462 25.0088 70.1533C24.0889 68.565 23.9199 67.5746 23.7509 62.8843C23.5632 58.1379 23.3942 57.0728 22.4367 55.092C21.2164 52.6254 19.2451 51.0744 14.8143 49.131C11.3223 47.6174 10.1395 46.8887 8.84407 45.5059C6.51605 42.9832 5.521 38.9843 5.82139 33.3223C5.95282 31.0425 5.99036 30.8744 6.77889 29.1365C7.64251 27.2305 9.31343 24.2033 9.50117 24.2033C9.57627 24.2033 9.76401 24.9321 9.95176 25.829ZM4.77003 44.5342C6.25321 47.4493 7.99922 49.0189 11.7353 50.7755C17.0672 53.2981 17.5178 53.5411 18.4565 54.4193C20.334 56.1758 20.9348 58.3622 20.9348 63.3328C20.9348 68.266 21.7984 71.1063 24.0325 73.5169C25.5533 75.1426 26.8862 75.9835 30.566 77.6653C34.1895 79.3284 35.2784 79.9824 36.2547 81.0476C37.7191 82.6733 38.2072 84.5793 38.2072 88.8959C38.2072 91.1569 38.1509 91.6615 37.9444 91.6615C37.3811 91.6615 33.1381 90.3347 31.1668 89.5499C19.8083 85.0091 10.5525 75.834 6.04669 64.6595C3.08034 57.297 2.0102 48.4396 3.21176 41.1145L3.3244 40.3858L3.77499 41.9181C4.01905 42.7776 4.46964 43.9362 4.77003 44.5342Z" fill="#FF239A"/>
    <path d="M58.352 7.17995C57.7136 7.23601 57.1504 7.32944 57.0941 7.3855C57.0565 7.44156 57.0565 8.0769 57.1316 8.78699L57.2631 10.0764L58.2957 10.039C59.8539 9.96424 59.9853 9.88949 59.9853 9.10466C59.9853 8.18902 59.7788 7.01177 59.6286 7.04915C59.5723 7.04915 58.9903 7.12389 58.352 7.17995Z" fill="#FF239A"/>
    <path d="M63.3648 9.57176C62.8955 9.64651 62.8767 9.6652 63.0081 10.9546C63.0644 11.6646 63.1583 12.2813 63.1959 12.3374C63.2522 12.3747 63.8717 12.356 64.5852 12.2813L65.8806 12.1505L65.843 11.1227C65.7492 9.49702 65.7116 9.44096 64.7166 9.45964C64.2284 9.47833 63.6277 9.53439 63.3648 9.57176Z" fill="#FF239A"/>
    <path d="M82.7212 76.5441C82.2894 77.086 81.9514 77.5532 81.9514 77.6279C81.9514 77.7774 84.0166 79.3845 84.1105 79.3097C84.5235 78.8613 85.7063 77.3476 85.7063 77.2542C85.7063 77.086 83.8289 75.5911 83.6411 75.5911C83.5472 75.5911 83.1342 76.0209 82.7212 76.5441Z" fill="#FF239A"/>
    </svg>
    