<svg width="97" height="104" viewBox="0 0 97 104" fill="none" xmlns="http://www.w3.org/2000/svg">
    <path d="M8.75317 0.560276C8.41105 0.918853 8.25005 1.34466 8.25005 1.86012C8.25005 2.59968 8.14943 2.71174 4.24524 5.60276C2.03152 7.21635 0.180045 8.71789 0.119671 8.89718C-0.262699 9.99532 0.320918 11.3848 1.16616 11.452C1.99127 11.5193 2.45414 11.2503 6.05646 8.58343L9.86003 5.75964L13.885 8.7403L17.9099 11.721V16.1359V20.5509L13.9051 23.5316C11.6914 25.1452 9.8399 26.6467 9.77953 26.826C9.39716 27.9242 9.98078 29.3136 10.8059 29.3809C11.6511 29.4481 12.114 29.1792 15.7163 26.5123L19.5199 23.6885L23.5448 26.6691L27.5698 29.6498V34.0648V38.4798L22.921 41.9086C20.3651 43.8136 18.1917 45.5392 18.091 45.7409C17.9904 45.965 17.9099 48.4527 17.9099 51.2765V56.4086L13.2611 59.8375C10.7053 61.7424 8.5318 63.4681 8.43117 63.6698C8.33055 63.8939 8.25005 66.3815 8.25005 69.2053V74.3374L4.24524 77.3181C2.03152 78.9317 0.180045 80.4332 0.119671 80.6125C-0.262699 81.7106 0.320918 83.1001 1.16616 83.1674C1.99127 83.2346 2.45414 82.9657 6.05646 80.2987L9.86003 77.475L13.885 80.4556L17.9099 83.4363V87.784C17.9099 92.1094 17.9099 92.1318 18.413 92.6696C19.057 93.4092 19.9828 93.4092 20.6267 92.6696C21.1299 92.1318 21.1299 92.1094 21.1299 87.784V83.4363L25.7787 80.0074C28.3345 78.1025 30.508 76.3768 30.6086 76.1751C30.7092 75.951 30.7897 73.4634 30.7897 70.6396V65.5075L34.8147 62.5268L38.8396 59.5461L42.8645 62.5268L46.8895 65.5075V70.6396C46.8895 73.4634 46.97 75.951 47.0706 76.1751C47.1712 76.3768 49.3447 78.1025 51.9005 80.0074L56.5493 83.4363V88.5684C56.5493 91.3922 56.6298 93.8798 56.7305 94.1039C56.8311 94.3056 59.0046 96.0313 61.5604 97.9362C66.1086 101.298 66.2092 101.388 66.2092 102.127C66.2092 103.113 66.9538 103.987 67.8192 103.987C68.6845 103.987 69.4292 103.113 69.4292 102.127C69.4292 101.388 69.5298 101.298 74.078 97.9362C76.6338 96.0313 78.8073 94.3056 78.9079 94.1039C79.1494 93.5885 79.1494 82.114 78.9079 81.5986C78.8073 81.3969 76.6338 79.6712 74.078 77.7663L69.4292 74.3374V69.9224V65.5075L73.4541 62.5268L77.479 59.5461L81.2826 62.3699C84.8849 65.0368 85.3478 65.3058 86.193 65.2385C87.1993 65.1713 87.7225 63.2888 86.9779 62.3923C86.7766 62.1682 84.9252 60.7115 82.8523 59.1875L79.089 56.4086V51.9936V47.5786L83.114 44.598L87.1389 41.6173L90.9425 44.4411C94.5448 47.108 95.0077 47.3769 95.8529 47.3097C96.8591 47.2425 97.3824 45.3599 96.6378 44.4635C96.4365 44.2394 94.585 42.7827 92.5122 41.2587L88.7489 38.4798V34.0648V29.6498L92.2103 27.0949C96.6176 23.8453 97 23.4868 97 22.5007C97 21.6715 96.4365 20.8647 95.8529 20.8199C95.0077 20.7526 94.5448 21.0216 90.9425 23.6885L87.1389 26.5123L83.114 23.5316L79.089 20.5509V16.2032C79.089 11.8779 79.089 11.8554 78.5859 11.3176C78.284 10.959 77.8614 10.7573 77.479 10.7573C77.0967 10.7573 76.6741 10.959 76.3722 11.3176C75.8691 11.8554 75.8691 11.8779 75.8691 16.2032V20.5509L71.2203 23.9798C68.6644 25.8847 66.491 27.6104 66.3903 27.8121C66.2897 28.0362 66.2092 30.5238 66.2092 33.3476V38.4798L62.1843 41.4604L58.1593 44.4411L54.1344 41.4604L50.1094 38.4798V33.3476C50.1094 30.5238 50.0289 28.0362 49.9283 27.8121C49.8277 27.6104 47.6542 25.8847 45.0984 23.9798L40.4496 20.5509V15.4188C40.4496 12.595 40.3691 10.1074 40.2685 9.88327C40.1678 9.68157 37.9944 7.95592 35.4385 6.05098C30.8903 2.68932 30.7897 2.59968 30.7897 1.86012C30.7897 0.874031 30.0451 3.57628e-07 29.1797 3.57628e-07C28.3144 3.57628e-07 27.5698 0.874031 27.5698 1.86012C27.5698 2.59968 27.4691 2.71174 23.5448 5.60276L19.5199 8.58343L15.4949 5.60276C11.5706 2.71174 11.47 2.59968 11.47 1.86012C11.47 0.874031 10.7254 3.57628e-07 9.86003 3.57628e-07C9.47766 3.57628e-07 9.05504 0.2017 8.75317 0.560276ZM33.2449 8.76272L37.2296 11.721V16.1359V20.5509L33.2047 23.5316L29.1797 26.5123L25.1548 23.5316L21.1299 20.5509V16.1359V11.721L25.1146 8.78513C27.288 7.14912 29.1194 5.82687 29.1797 5.82687C29.22 5.82687 31.0513 7.14912 33.2449 8.76272ZM42.9048 26.6915L46.8895 29.6498V34.0648V38.4798L42.8645 41.4604L38.8396 44.4411L34.8147 41.4604L30.7897 38.4798V34.0648V29.6498L34.7744 26.714C36.9479 25.078 38.7792 23.7557 38.8396 23.7557C38.8799 23.7557 40.7112 25.078 42.9048 26.6915ZM81.5442 26.6915L85.5289 29.6498V34.0648V38.4798L81.504 41.4604L77.479 44.4411L73.4541 41.4604L69.4292 38.4798V34.0648V29.6498L73.4138 26.714C75.5873 25.078 77.4187 23.7557 77.479 23.7557C77.5193 23.7557 79.3506 25.078 81.5442 26.6915ZM33.2449 44.6204L37.2296 47.5786V51.9936V56.4086L33.2047 59.3892L29.1797 62.3699L25.1548 59.3892L21.1299 56.4086V51.9936V47.5786L25.1146 44.6428C27.288 43.0068 29.1194 41.6845 29.1797 41.6845C29.22 41.6845 31.0513 43.0068 33.2449 44.6204ZM52.5647 44.6204L56.5493 47.5786V51.9936V56.4086L52.5244 59.3892L48.4995 62.3699L44.4745 59.3892L40.4496 56.4086V51.9936V47.5786L44.4343 44.6428C46.6077 43.0068 48.4391 41.6845 48.4995 41.6845C48.5397 41.6845 50.3711 43.0068 52.5647 44.6204ZM71.8844 44.6204L75.8691 47.5786V51.9936V56.4086L71.8441 59.3892L67.8192 62.3699L63.7942 59.3892L59.7693 56.4086V51.9936V47.5786L63.754 44.6428C65.9275 43.0068 67.7588 41.6845 67.8192 41.6845C67.8594 41.6845 69.6908 43.0068 71.8844 44.6204ZM23.5851 62.5492L27.5698 65.5075V69.9224V74.3374L23.5448 77.3181L19.5199 80.2987L15.4949 77.3181L11.47 74.3374V69.9224V65.5075L15.4547 62.5716C17.6282 60.9356 19.4595 59.6134 19.5199 59.6134C19.5601 59.6134 21.3915 60.9356 23.5851 62.5492ZM62.2245 62.5492L66.2092 65.5075V69.9224V74.3374L62.1843 77.3181L58.1593 80.2987L54.1344 77.3181L50.1094 74.3374V69.9224V65.5075L54.0941 62.5716C56.2676 60.9356 58.0989 59.6134 58.1593 59.6134C58.1996 59.6134 60.0309 60.9356 62.2245 62.5492ZM71.8844 80.478L75.8691 83.4363V87.8513V92.2662L71.8441 95.2469L67.8192 98.2276L63.7942 95.2469L59.7693 92.2662V87.8513V83.4363L63.754 80.5004C65.9275 78.8644 67.7588 77.5422 67.8192 77.5422C67.8594 77.5422 69.6908 78.8644 71.8844 80.478Z" fill="#B91AF0"/>
    </svg>
    