<svg width="91" height="100" viewBox="0 0 91 100" fill="none" xmlns="http://www.w3.org/2000/svg">
    <path d="M29.5395 2.956L26.8379 5.89269L44.2203 24.788L61.585 43.6639L64.2154 40.8045C65.6551 39.2396 66.8281 37.8678 66.8281 37.7712C66.8281 37.6746 63.2557 33.6946 58.8834 28.9418L50.9209 20.2863L57.5504 13.0798L64.1621 5.89269L61.4605 2.93668L58.7412 -5.63264e-06L52.1295 7.18715L45.5 14.3936L38.8705 7.18715L32.2588 -5.63264e-06L29.5395 2.956Z" fill="#2FA8FF"/>
    <path d="M26.6246 34.9118L18.6621 43.5673L12.0326 36.3608L5.4209 29.1737L2.70156 32.1104L0 35.0664L6.61172 42.2535L13.2412 49.46L6.61172 56.6665L0 63.8537L2.71934 66.8097L5.4209 69.7464L22.8033 50.8511L40.168 31.9751L37.5375 29.1157C36.0979 27.5508 34.8359 26.2756 34.7471 26.2756C34.6404 26.2756 30.9969 30.159 26.6246 34.9118Z" fill="#2FA8FF"/>
    <path d="M68.1967 48.069L50.832 66.9449L53.4625 69.8043C54.9021 71.3693 56.1641 72.6444 56.2529 72.6444C56.3418 72.6444 60.0031 68.761 64.3754 64.0082L72.3379 55.3527L78.9674 62.5592L85.5791 69.7464L88.2984 66.8097L91 63.8537L84.3883 56.6665L77.7588 49.46L84.3883 42.2535L91 35.0664L88.2807 32.1104L85.5791 29.1737L68.1967 48.069Z" fill="#2FA8FF"/>
    <path d="M26.7846 58.1155C25.3449 59.6805 24.1719 61.0522 24.1719 61.1488C24.1719 61.2454 27.7443 65.2254 32.1166 69.9782L40.0791 78.6337L33.4496 85.8402L26.8379 93.0274L29.5395 95.9834L32.2588 98.9201L38.8705 91.7329L45.5 84.5264L52.165 91.7715L58.8301 99.0167L61.5316 96.0607L64.251 93.124L46.833 74.19L29.415 55.2561L26.7846 58.1155Z" fill="#2FA8FF"/>
    </svg>
    