<svg width="91" height="91" viewBox="0 0 91 91" fill="none" xmlns="http://www.w3.org/2000/svg">
    <path d="M41.6075 0.105939C28.5085 1.38694 16.9025 7.82752 9.15324 18.1645C7.12707 20.851 5.98957 22.7369 4.46105 25.9394C2.00832 31.0456 0.693087 35.9028 0.177657 41.685C-0.106718 44.7808 0.319845 45.9906 1.93723 46.8446L2.71926 47.2538H20.4216C36.9331 47.2538 38.1417 47.2182 38.4972 46.9336C39.4036 46.2041 39.5103 45.2078 38.7638 44.3716L38.2483 43.7845L20.9015 43.7311L3.55461 43.6955L3.66125 42.5746C3.71457 41.9697 3.87453 40.582 4.01672 39.5145C5.88293 25.886 14.7519 13.7521 27.2288 7.75635C36.3466 3.3974 46.1397 2.38327 55.8263 4.82073C61.2827 6.20848 66.8102 8.9306 71.4491 12.5245C73.3331 14.0012 76.7278 17.3638 78.203 19.232C83.6239 26.1173 86.5565 33.5898 87.3385 42.5746L87.4452 43.6955L70.1339 43.7311L52.8225 43.7845L52.3604 44.2115C51.8095 44.7452 51.614 45.5102 51.8983 46.2041C52.3604 47.3072 51.454 47.2538 70.7026 47.2538H88.2805L89.0626 46.8446C90.68 45.9906 91.1065 44.7808 90.8221 41.685C89.8268 30.5119 85.1169 20.6019 77.1188 12.827C70.205 6.11952 61.6559 1.8851 52.1472 0.461773C49.3034 0.0347728 44.1136 -0.125352 41.6075 0.105939Z" fill="#FF0000"/>
    <path d="M44.8602 43.8556C44.327 44.0869 43.7227 44.9053 43.7227 45.4213C43.7227 47.325 46.2109 47.9299 47.0818 46.2397C47.7572 44.9231 46.2287 43.2863 44.8602 43.8556Z" fill="#FF0000"/>
    <path d="M2.41719 51.7907C1.54629 52.0932 0.764258 52.8404 0.337695 53.7478C0.0710938 54.3349 0 54.9043 0 56.9147C0 60.135 0.355469 61.0246 1.99063 61.8608C2.63047 62.1988 3.73242 62.1988 45.5 62.1988C87.2676 62.1988 88.3695 62.1988 89.0094 61.8608C90.6445 61.0246 91 60.135 91 56.9147C91 54.922 90.9289 54.3171 90.6623 53.7478C90.2535 52.8404 89.2582 51.9508 88.3873 51.7196C87.9252 51.5772 74.3996 51.5238 45.4111 51.5238C9.95313 51.5416 3.00371 51.5772 2.41719 51.7907ZM87.4453 56.8613V58.6405H45.5H3.55469V56.8613V55.0822H45.5H87.4453V56.8613Z" fill="#FF0000"/>
    <path d="M10.0416 66.2731C9.22404 66.6467 8.2465 67.6786 8.051 68.3903C7.87326 69.013 7.87326 73.5321 8.051 74.1548C8.2465 74.8664 9.22404 75.8984 10.0416 76.272C10.717 76.5922 12.2633 76.61 45.4997 76.61C78.736 76.61 80.2823 76.5922 80.9577 76.272C81.7753 75.8984 82.7528 74.8664 82.9484 74.1548C83.1261 73.5321 83.1261 69.013 82.9484 68.3903C82.7528 67.6786 81.7753 66.6467 80.9577 66.2731C80.2823 65.9528 78.736 65.935 45.4997 65.935C12.2633 65.935 10.717 65.9528 10.0416 66.2731ZM79.6247 71.2725V73.0517H45.4997H11.3746V71.2725V69.4934H45.4997H79.6247V71.2725Z" fill="#FF0000"/>
    <path d="M19.8174 80.6487C18.1289 81.5383 17.7912 82.3745 17.7734 85.6126C17.7734 87.9077 17.809 88.1746 18.2178 88.993C18.7154 90.0071 19.7641 90.7722 20.866 90.9323C21.257 90.9857 32.632 91.0213 46.1221 90.9857L70.6494 90.9323L71.4848 90.4519C72.0891 90.0783 72.4268 89.7225 72.7645 89.0286C73.191 88.1746 73.2266 87.9433 73.2266 85.6482C73.2266 82.4101 72.8711 81.5205 71.2359 80.6843C70.5961 80.3641 69.7963 80.3463 45.4645 80.3463C22.91 80.3641 20.2973 80.3818 19.8174 80.6487ZM69.6719 85.6838V87.4629H45.5H21.3281V85.6838V83.9046H45.5H69.6719V85.6838Z" fill="#FF0000"/>
    </svg>
    