<svg width="94" height="84" viewBox="0 0 94 84" fill="none" xmlns="http://www.w3.org/2000/svg">
    <path d="M68.407 2.8187C65.9285 5.43864 65.7266 5.6916 65.7266 6.32399C65.7266 7.66106 67.3055 8.25732 68.2602 7.26356C68.5355 6.99253 69.5453 5.94456 70.5184 4.93272L72.2992 3.07166L81.1301 6.26979L89.9793 9.44985L89.1715 10.281C88.5473 10.9315 23.298 79.1401 22.0496 80.441C21.7559 80.7482 21.2785 80.5856 12.9434 77.6043C8.11484 75.8516 4.13086 74.4061 4.09414 74.3881C4.07578 74.37 17.7168 60.0778 34.4238 42.6417C54.9312 21.2124 64.827 10.7688 64.9004 10.4255C65.1207 9.48598 64.0742 8.49222 63.1012 8.74517C62.8074 8.81745 51.3879 20.5981 31.3211 41.5576C0.532422 73.7195 0 74.2797 0 75.0024C0 75.4722 0.110156 75.8155 0.348828 75.9962C0.532422 76.1588 5.39766 77.9837 11.1258 80.0616L21.5723 83.8379H46.0453C70.2613 83.8379 70.5 83.8379 70.8672 83.4765C71.3445 83.0067 71.3445 82.031 70.8855 81.4709L70.5367 81.0373L48.1383 80.9469L25.7398 80.8566L57.2262 47.9719C74.5391 29.8853 89.2816 14.491 89.9793 13.7502L91.2461 12.4311V46.689V80.9289L82.8742 80.9831L74.5023 81.0373L74.0617 81.5432C73.5293 82.1575 73.4926 82.7357 74.0066 83.3681L74.3738 83.8379H83.8289C93.0269 83.8379 93.284 83.8198 93.6328 83.4765C94 83.1152 94 82.8803 94 45.623C94 8.56449 94 8.13084 93.6328 7.82368C93.082 7.3539 72.5379 1.66893e-05 71.7668 1.66893e-05C71.1426 1.66893e-05 70.9223 0.180702 68.407 2.8187Z" fill="#FDE14F"/>
    </svg>
    